# xmcd CD database file
#
# Track frame offsets:
#	150
#	14740
#	31224
#	43574
#	58033
#	74357
#	89628
#	100266
#	122671
#	133873
#	144829
#	159915
#	172170
#	184159
#
# Disc length: 2623 seconds
#
# Revision: 0
# Processed by: cddbd v1.5.2PL0 Copyright (c) Steve Scherf et al.
# Submitted via: CDex 1.70beta2
#
DISCID=c60a3d0e
DTITLE=Dave Mc Callum n- Double Decker Dave - Double Decker Dave
DYEAR=1999
DGENRE=Country
TTITLE0=Put Another Keg On Tap
TTITLE1=Addicted To The Highway
TTITLE2=I'm Just What I Am
TTITLE3=Been There Done That
TTITLE4=Second Time Around
TTITLE5=Faces On The Rail
TTITLE6=Cobb and Co Twitch
TTITLE7=The Black Swan
TTITLE8=Harry Redford - The White Bull From Aramac
TTITLE9=R M Williams Boots
TTITLE10=Come And Have A Beer Mate
TTITLE11=Motorbike Ringers
TTITLE12=Everyone Got It But Me
TTITLE13=Headed Out Headed Home
EXTD=YEAR: 1999
EXTT0=
EXTT1=
EXTT2=
EXTT3=
EXTT4=
EXTT5=
EXTT6=
EXTT7=
EXTT8=
EXTT9=
EXTT10=
EXTT11=
EXTT12=
EXTT13=
PLAYORDER=
